<svg xmlns="http://www.w3.org/2000/svg" xmlns:xlink="http://www.w3.org/1999/xlink" width="1080" zoomAndPan="magnify" viewBox="0 0 810 809.999993" height="1080" preserveAspectRatio="xMidYMid meet" version="1.0"><defs><clipPath id="b53402da04"><path d="M 549 67.898438 L 573 67.898438 L 573 102 L 549 102 Z M 549 67.898438 " clip-rule="nonzero"/></clipPath><clipPath id="12992bb0c2"><path d="M 69 655 L 145 655 L 145 742.148438 L 69 742.148438 Z M 69 655 " clip-rule="nonzero"/></clipPath></defs><path fill="#b41515" d="M 505.035156 427.496094 L 617.410156 427.496094 L 617.410156 449.972656 L 505.035156 449.972656 Z M 505.035156 427.496094 " fill-opacity="1" fill-rule="nonzero"/><path fill="#b41515" d="M 605.183594 475.425781 L 606.171875 472.445312 L 516.273438 472.445312 L 517.261719 475.425781 C 523.386719 493.777344 540.558594 506.160156 559.910156 506.160156 L 562.539062 506.160156 C 581.890625 506.160156 599.058594 493.777344 605.183594 475.425781 Z M 605.183594 475.425781 " fill-opacity="1" fill-rule="nonzero"/><path fill="#b41515" d="M 381.421875 225.222656 L 415.136719 225.222656 L 415.136719 247.695312 L 381.421875 247.695312 Z M 381.421875 225.222656 " fill-opacity="1" fill-rule="nonzero"/><path fill="#b41515" d="M 707.3125 225.222656 L 741.023438 225.222656 L 741.023438 247.695312 L 707.3125 247.695312 Z M 707.3125 225.222656 " fill-opacity="1" fill-rule="nonzero"/><path fill="#b41515" d="M 426.132812 117.273438 L 442.023438 101.378906 L 465.863281 125.21875 L 449.96875 141.109375 Z M 426.132812 117.273438 " fill-opacity="1" fill-rule="nonzero"/><path fill="#b41515" d="M 656.566406 125.21875 L 680.40625 101.378906 L 696.296875 117.269531 L 672.460938 141.109375 Z M 656.566406 125.21875 " fill-opacity="1" fill-rule="nonzero"/><g clip-path="url(#b53402da04)"><path fill="#b41515" d="M 549.984375 67.898438 L 572.460938 67.898438 L 572.460938 101.609375 L 549.984375 101.609375 Z M 549.984375 67.898438 " fill-opacity="1" fill-rule="nonzero"/></g><path fill="#b41515" d="M 572.460938 607.296875 L 572.460938 573.585938 L 549.984375 573.585938 L 549.984375 607.296875 C 549.984375 650.671875 514.699219 685.960938 471.324219 685.960938 L 460.085938 685.960938 C 416.710938 685.960938 381.421875 650.671875 381.421875 607.296875 L 381.421875 405.023438 C 381.421875 349.261719 336.046875 303.882812 280.285156 303.882812 L 257.8125 303.882812 L 257.8125 326.359375 L 280.285156 326.359375 C 323.664062 326.359375 358.949219 361.644531 358.949219 405.023438 L 358.949219 607.296875 C 358.949219 663.058594 404.324219 708.433594 460.085938 708.433594 L 471.324219 708.433594 C 527.082031 708.433594 572.460938 663.058594 572.460938 607.296875 Z M 572.460938 607.296875 " fill-opacity="1" fill-rule="nonzero"/><path fill="#b41515" d="M 549.984375 528.632812 L 572.460938 528.632812 L 572.460938 551.109375 L 549.984375 551.109375 Z M 549.984375 528.632812 " fill-opacity="1" fill-rule="nonzero"/><path fill="#b41515" d="M 617.410156 383.265625 C 617.410156 364.894531 624.152344 346.800781 637.378906 334.347656 C 659.628906 313.402344 673.597656 283.433594 673.597656 250.089844 C 673.597656 182.394531 616.207031 128.386719 548.402344 136.050781 C 496.460938 141.917969 454.476562 185.453125 449.398438 238.570312 C 445.804688 276.171875 460.03125 310.445312 484.4375 333.765625 C 497.789062 346.507812 505.035156 364.554688 505.035156 383.222656 L 505.035156 405.023438 L 617.410156 405.023438 Z M 561.222656 284.691406 L 526.5 303.882812 L 533.128906 263.226562 L 505.035156 234.4375 L 543.863281 228.503906 L 561.222656 191.507812 L 578.585938 228.503906 L 617.410156 234.4375 L 589.316406 263.226562 L 595.945312 303.882812 Z M 561.222656 284.691406 " fill-opacity="1" fill-rule="nonzero"/><path fill="#b41515" d="M 212.859375 303.882812 L 235.335938 303.882812 L 235.335938 326.359375 L 212.859375 326.359375 Z M 212.859375 303.882812 " fill-opacity="1" fill-rule="nonzero"/><path fill="#b41515" d="M 136.582031 383.164062 L 132.007812 400.246094 L 218.625 424.304688 L 223.414062 406.4375 C 229.839844 382.457031 215.601562 357.8125 191.632812 351.386719 C 167.652344 344.957031 142.996094 359.183594 136.582031 383.164062 Z M 136.582031 383.164062 " fill-opacity="1" fill-rule="nonzero"/><path fill="#b41515" d="M 212.804688 446.015625 L 126.1875 421.945312 L 69.851562 632.1875 L 156.121094 657.5625 Z M 212.804688 446.015625 " fill-opacity="1" fill-rule="nonzero"/><g clip-path="url(#12992bb0c2)"><path fill="#b41515" d="M 144.257812 677.496094 L 69.179688 655.414062 L 78.011719 742.148438 Z M 144.257812 677.496094 " fill-opacity="1" fill-rule="nonzero"/></g></svg>