<svg xmlns="http://www.w3.org/2000/svg" xmlns:xlink="http://www.w3.org/1999/xlink" width="1080" zoomAndPan="magnify" viewBox="0 0 810 809.999993" height="1080" preserveAspectRatio="xMidYMid meet" version="1.0"><defs><clipPath id="e1786d3edd"><path d="M 79.496094 79.496094 L 730.496094 79.496094 L 730.496094 730.496094 L 79.496094 730.496094 Z M 79.496094 79.496094 " clip-rule="nonzero"/></clipPath></defs><g clip-path="url(#e1786d3edd)"><path fill="#b41515" d="M 574.875 356.5 L 298.246094 632.566406 L 298.246094 460.078125 L 423 460.078125 C 426.226562 460.078125 429.078125 458.585938 430.992188 456.285156 L 574.875 312.410156 Z M 433.453125 694.777344 L 433.453125 661.5625 L 709.484375 385.535156 L 709.484375 418.746094 Z M 590.609375 370.316406 L 694.785156 370.675781 L 418.613281 646.851562 L 313.519531 646.851562 Z M 100.359375 667.75 L 225.09375 667.75 C 230.867188 667.75 235.546875 663.078125 235.546875 657.296875 L 235.546875 449.625 C 235.546875 443.851562 230.867188 439.171875 225.09375 439.171875 L 100.359375 439.171875 L 100.359375 397.371094 L 412.550781 397.371094 L 412.550781 439.171875 L 287.792969 439.171875 C 282.019531 439.171875 277.347656 443.851562 277.347656 449.625 L 277.347656 657.296875 C 277.347656 663.078125 282.019531 667.75 287.792969 667.75 L 412.550781 667.75 L 412.550781 709.550781 L 100.359375 709.550781 Z M 214.640625 547.28125 L 214.640625 646.851562 L 115.074219 646.851562 Z M 391.171875 100.4375 L 694.703125 100.4375 L 418.671875 376.472656 L 115.132812 376.472656 Z M 577.90625 279.816406 L 433.453125 424.269531 L 433.453125 391.253906 L 709.484375 115.214844 L 709.484375 148.238281 L 577.960938 279.765625 C 577.945312 279.785156 577.921875 279.800781 577.90625 279.816406 Z M 727.296875 159.980469 C 727.796875 159.488281 728.246094 158.9375 728.632812 158.351562 C 728.765625 158.15625 728.851562 157.941406 728.96875 157.742188 C 729.191406 157.355469 729.417969 156.96875 729.589844 156.558594 C 729.714844 156.246094 729.785156 155.929688 729.882812 155.613281 C 729.988281 155.28125 730.113281 154.957031 730.183594 154.613281 C 730.316406 153.9375 730.382812 153.25 730.382812 152.570312 L 730.382812 89.984375 C 730.382812 89.300781 730.316406 88.621094 730.183594 87.945312 C 730.113281 87.601562 729.988281 87.277344 729.882812 86.941406 C 729.785156 86.632812 729.714844 86.308594 729.589844 85.996094 C 729.417969 85.582031 729.191406 85.203125 728.96875 84.816406 C 728.851562 84.613281 728.765625 84.402344 728.632812 84.207031 C 727.867188 83.046875 726.875 82.054688 725.71875 81.285156 C 725.527344 81.15625 725.3125 81.078125 725.117188 80.960938 C 724.726562 80.738281 724.339844 80.507812 723.917969 80.328125 C 723.613281 80.199219 723.296875 80.132812 722.980469 80.039062 C 722.644531 79.9375 722.324219 79.808594 721.976562 79.738281 C 721.304688 79.605469 720.617188 79.539062 719.9375 79.539062 L 386.839844 79.539062 C 384.066406 79.539062 381.410156 80.640625 379.453125 82.597656 L 82.546875 379.507812 C 82.046875 380.003906 81.601562 380.550781 81.203125 381.140625 C 81.078125 381.335938 80.992188 381.546875 80.875 381.753906 C 80.652344 382.140625 80.425781 382.523438 80.253906 382.9375 C 80.125 383.242188 80.058594 383.566406 79.960938 383.875 C 79.855469 384.210938 79.730469 384.53125 79.660156 384.878906 C 79.527344 385.554688 79.457031 386.238281 79.457031 386.917969 L 79.457031 449.625 C 79.457031 455.398438 84.132812 460.078125 89.90625 460.078125 L 214.640625 460.078125 L 214.640625 517.726562 L 82.519531 649.847656 C 80.46875 651.898438 79.453125 654.585938 79.457031 657.269531 C 79.457031 657.28125 79.457031 657.285156 79.457031 657.296875 L 79.457031 720.003906 C 79.457031 725.78125 84.132812 730.453125 89.90625 730.453125 L 423 730.453125 C 423.683594 730.453125 424.371094 730.382812 425.042969 730.25 C 425.378906 730.183594 425.695312 730.0625 426.019531 729.957031 C 426.339844 729.863281 426.675781 729.789062 426.992188 729.65625 C 427.394531 729.492188 427.769531 729.265625 428.148438 729.046875 C 428.363281 728.929688 428.582031 728.839844 428.785156 728.707031 C 429.371094 728.308594 429.917969 727.867188 430.414062 727.371094 L 727.324219 430.460938 C 729.285156 428.5 730.382812 425.84375 730.382812 423.074219 L 730.382812 360.300781 C 730.382812 359.621094 730.316406 358.9375 730.183594 358.261719 C 730.113281 357.9375 729.992188 357.632812 729.902344 357.324219 C 729.800781 356.984375 729.726562 356.644531 729.589844 356.320312 C 729.433594 355.933594 729.214844 355.582031 729.011719 355.226562 C 728.886719 354.996094 728.78125 354.746094 728.632812 354.515625 C 728.246094 353.945312 727.816406 353.40625 727.324219 352.914062 C 727.308594 352.902344 727.296875 352.898438 727.277344 352.878906 C 726.804688 352.414062 726.292969 351.992188 725.734375 351.617188 C 725.480469 351.445312 725.203125 351.328125 724.9375 351.179688 C 724.609375 351 724.292969 350.804688 723.941406 350.660156 C 723.601562 350.515625 723.246094 350.4375 722.886719 350.328125 C 722.589844 350.242188 722.304688 350.125 721.996094 350.066406 C 721.445312 349.953125 720.894531 349.914062 720.335938 349.894531 C 720.207031 349.890625 720.09375 349.855469 719.964844 349.855469 L 595.773438 349.441406 L 595.773438 291.511719 L 727.296875 159.980469 " fill-opacity="1" fill-rule="nonzero"/></g></svg>