<svg xmlns="http://www.w3.org/2000/svg" xmlns:xlink="http://www.w3.org/1999/xlink" width="1080" zoomAndPan="magnify" viewBox="0 0 810 809.999993" height="1080" preserveAspectRatio="xMidYMid meet" version="1.0"><defs><clipPath id="a5b6d2db46"><path d="M 67.488281 236 L 742.488281 236 L 742.488281 742.488281 L 67.488281 742.488281 Z M 67.488281 236 " clip-rule="nonzero"/></clipPath><clipPath id="928d34d182"><path d="M 393 67.488281 L 642 67.488281 L 642 214 L 393 214 Z M 393 67.488281 " clip-rule="nonzero"/></clipPath><clipPath id="afc6370d5b"><path d="M 202 67.488281 L 383 67.488281 L 383 214 L 202 214 Z M 202 67.488281 " clip-rule="nonzero"/></clipPath></defs><path fill="#b41515" d="M 134.988281 674.988281 L 112.488281 674.988281 L 112.488281 697.488281 L 134.988281 697.488281 L 134.988281 674.988281 " fill-opacity="1" fill-rule="nonzero"/><path fill="#b41515" d="M 179.988281 674.988281 L 157.488281 674.988281 L 157.488281 697.488281 L 179.988281 697.488281 L 179.988281 674.988281 " fill-opacity="1" fill-rule="nonzero"/><path fill="#b41515" d="M 224.988281 674.988281 L 202.488281 674.988281 L 202.488281 697.488281 L 224.988281 697.488281 L 224.988281 674.988281 " fill-opacity="1" fill-rule="nonzero"/><path fill="#b41515" d="M 494.988281 674.988281 L 472.488281 674.988281 L 472.488281 697.488281 L 494.988281 697.488281 L 494.988281 674.988281 " fill-opacity="1" fill-rule="nonzero"/><path fill="#b41515" d="M 539.988281 674.988281 L 517.488281 674.988281 L 517.488281 697.488281 L 539.988281 697.488281 L 539.988281 674.988281 " fill-opacity="1" fill-rule="nonzero"/><path fill="#b41515" d="M 584.988281 674.988281 L 562.488281 674.988281 L 562.488281 697.488281 L 584.988281 697.488281 L 584.988281 674.988281 " fill-opacity="1" fill-rule="nonzero"/><path fill="#b41515" d="M 674.988281 674.988281 L 652.488281 674.988281 L 652.488281 697.488281 L 674.988281 697.488281 L 674.988281 674.988281 " fill-opacity="1" fill-rule="nonzero"/><g clip-path="url(#a5b6d2db46)"><path fill="#b41515" d="M 708.738281 629.988281 L 629.988281 629.988281 L 629.988281 607.488281 L 708.738281 607.488281 C 714.9375 607.488281 719.988281 612.542969 719.988281 618.738281 C 719.988281 624.9375 714.9375 629.988281 708.738281 629.988281 Z M 697.488281 719.988281 L 629.988281 719.988281 L 629.988281 652.488281 L 697.488281 652.488281 Z M 629.988281 562.488281 L 697.488281 562.488281 L 697.488281 584.988281 L 629.988281 584.988281 Z M 607.488281 629.988281 L 449.988281 629.988281 L 449.988281 557.832031 L 607.488281 469.238281 Z M 607.488281 719.988281 L 449.988281 719.988281 L 449.988281 652.488281 L 607.488281 652.488281 Z M 444.410156 440.277344 C 440.980469 438.257812 436.71875 438.257812 433.246094 440.191406 L 409.382812 453.59375 L 412.855469 348.738281 L 487.125 348.738281 L 492.441406 508.128906 L 449.988281 531.992188 L 449.988281 449.988281 C 449.988281 445.992188 447.878906 442.300781 444.410156 440.277344 Z M 427.488281 551.238281 L 427.488281 596.238281 L 269.988281 596.238281 L 269.988281 557.832031 L 427.488281 469.238281 Z M 427.488281 719.988281 L 382.488281 719.988281 L 382.488281 674.988281 C 382.488281 668.792969 377.4375 663.738281 371.238281 663.738281 L 326.238281 663.738281 C 320.042969 663.738281 314.988281 668.792969 314.988281 674.988281 L 314.988281 719.988281 L 269.988281 719.988281 L 269.988281 618.738281 L 427.488281 618.738281 Z M 359.988281 719.988281 L 337.488281 719.988281 L 337.488281 686.238281 L 359.988281 686.238281 Z M 264.410156 440.277344 C 260.980469 438.257812 256.71875 438.257812 253.246094 440.191406 L 217.914062 460.054688 L 221.605469 348.738281 L 295.875 348.738281 L 301.367188 514.324219 L 269.988281 531.992188 L 269.988281 449.988281 C 269.988281 445.992188 267.878906 442.300781 264.410156 440.277344 Z M 247.488281 551.238281 L 247.488281 629.988281 L 89.988281 629.988281 L 89.988281 557.832031 L 247.488281 469.238281 Z M 247.488281 719.988281 L 89.988281 719.988281 L 89.988281 652.488281 L 247.488281 652.488281 Z M 223.144531 303.738281 L 294.335938 303.738281 L 294.644531 311.824219 L 295.125 326.238281 L 222.398438 326.238281 Z M 224.636719 258.738281 L 292.839844 258.738281 L 293.589844 281.238281 L 223.890625 281.238281 Z M 414.304688 305.894531 L 414.394531 303.738281 L 485.585938 303.738281 L 485.761719 308.835938 L 486.375 326.238281 L 413.601562 326.238281 Z M 415.886719 258.738281 L 484.089844 258.738281 L 484.839844 281.238281 L 415.140625 281.238281 Z M 719.988281 587.054688 L 719.988281 551.238281 C 719.988281 545.042969 714.9375 539.988281 708.738281 539.988281 L 629.988281 539.988281 L 629.988281 449.988281 C 629.988281 445.992188 627.878906 442.300781 624.410156 440.277344 C 620.980469 438.257812 616.71875 438.257812 613.246094 440.191406 L 514.5 495.691406 L 506.238281 247.136719 C 506.019531 241.03125 501.054688 236.238281 494.988281 236.238281 L 404.988281 236.238281 C 398.925781 236.238281 393.960938 241.03125 393.738281 247.136719 L 386.445312 466.511719 L 323.472656 501.933594 L 314.988281 247.136719 C 314.769531 241.03125 309.804688 236.238281 303.738281 236.238281 L 213.738281 236.238281 C 207.675781 236.238281 202.710938 241.03125 202.488281 247.136719 L 199.5 337.136719 L 194.976562 472.929688 L 73.246094 541.441406 C 69.6875 543.417969 67.488281 547.195312 67.488281 551.238281 L 67.488281 731.238281 C 67.488281 737.4375 72.542969 742.488281 78.738281 742.488281 L 708.738281 742.488281 C 714.9375 742.488281 719.988281 737.4375 719.988281 731.238281 L 719.988281 650.425781 C 733.042969 645.765625 742.488281 633.375 742.488281 618.738281 C 742.488281 604.105469 733.042969 591.714844 719.988281 587.054688 " fill-opacity="1" fill-rule="nonzero"/></g><g clip-path="url(#928d34d182)"><path fill="#b41515" d="M 416.238281 168.738281 C 416.238281 150.105469 431.355469 134.988281 449.988281 134.988281 L 483.738281 134.988281 C 489.9375 134.988281 494.988281 129.9375 494.988281 123.738281 C 494.988281 105.105469 510.105469 89.988281 528.738281 89.988281 L 618.738281 89.988281 L 618.738281 112.488281 C 618.738281 131.121094 603.621094 146.238281 584.988281 146.238281 L 551.238281 146.238281 C 545.042969 146.238281 539.988281 151.292969 539.988281 157.488281 C 539.988281 176.121094 524.871094 191.238281 506.238281 191.238281 L 416.238281 191.238281 Z M 404.988281 213.738281 L 506.238281 213.738281 C 533.398438 213.738281 556.117188 194.402344 561.347656 168.738281 L 584.988281 168.738281 C 616.015625 168.738281 641.238281 143.515625 641.238281 112.488281 L 641.238281 78.738281 C 641.238281 72.542969 636.1875 67.488281 629.988281 67.488281 L 528.738281 67.488281 C 501.582031 67.488281 478.863281 86.824219 473.632812 112.488281 L 449.988281 112.488281 C 418.964844 112.488281 393.738281 137.714844 393.738281 168.738281 L 393.738281 202.488281 C 393.738281 208.6875 398.792969 213.738281 404.988281 213.738281 " fill-opacity="1" fill-rule="nonzero"/></g><g clip-path="url(#afc6370d5b)"><path fill="#b41515" d="M 224.988281 179.988281 C 224.988281 161.355469 240.105469 146.238281 258.738281 146.238281 C 264.9375 146.238281 269.988281 141.1875 269.988281 134.988281 L 269.988281 123.738281 C 269.988281 105.105469 285.105469 89.988281 303.738281 89.988281 L 359.988281 89.988281 L 359.988281 101.238281 C 359.988281 119.871094 344.871094 134.988281 326.238281 134.988281 C 320.042969 134.988281 314.988281 140.042969 314.988281 146.238281 L 314.988281 157.488281 C 314.988281 176.121094 299.871094 191.238281 281.238281 191.238281 L 224.988281 191.238281 Z M 213.738281 213.738281 L 281.238281 213.738281 C 312.265625 213.738281 337.488281 188.515625 337.488281 157.488281 L 337.488281 156.347656 C 363.152344 151.117188 382.488281 128.398438 382.488281 101.238281 L 382.488281 78.738281 C 382.488281 72.542969 377.4375 67.488281 371.238281 67.488281 L 303.738281 67.488281 C 272.714844 67.488281 247.488281 92.714844 247.488281 123.738281 L 247.488281 124.882812 C 221.824219 130.113281 202.488281 152.832031 202.488281 179.988281 L 202.488281 202.488281 C 202.488281 208.6875 207.542969 213.738281 213.738281 213.738281 " fill-opacity="1" fill-rule="nonzero"/></g></svg>