<svg xmlns="http://www.w3.org/2000/svg" xmlns:xlink="http://www.w3.org/1999/xlink" width="400" zoomAndPan="magnify" viewBox="0 0 300 299.999988" height="400" preserveAspectRatio="xMidYMid meet" version="1.0"><defs><clipPath id="50f8695509"><path d="M 24 24.085938 L 241 24.085938 L 241 194 L 24 194 Z M 24 24.085938 " clip-rule="nonzero"/></clipPath><clipPath id="26c3dd4245"><path d="M 264 24.085938 L 276 24.085938 L 276 34 L 264 34 Z M 264 24.085938 " clip-rule="nonzero"/></clipPath><clipPath id="205ec39262"><path d="M 23 40 L 276 40 L 276 276.085938 L 23 276.085938 Z M 23 40 " clip-rule="nonzero"/></clipPath></defs><rect x="-30" width="360" fill="#ffffff" y="-29.999999" height="359.999986" fill-opacity="1"/><rect x="-30" width="360" fill="#ffffff" y="-29.999999" height="359.999986" fill-opacity="1"/><rect x="-30" width="360" fill="#ffffff" y="-29.999999" height="359.999986" fill-opacity="1"/><g clip-path="url(#50f8695509)"><path fill="#b41515" d="M 28.113281 193.527344 C 28.113281 193.527344 28.308594 193.527344 28.113281 193.527344 C 66.253906 192.347656 100.261719 173.28125 125.230469 145.171875 C 142.53125 125.710938 148.035156 99.371094 162.976562 78.535156 C 177.523438 58.289062 204.65625 41.382812 237.484375 32.34375 C 239.648438 31.753906 240.828125 29.589844 240.238281 27.429688 C 239.648438 25.265625 237.484375 24.085938 235.324219 24.675781 C 214.878906 30.179688 177.523438 44.136719 156.488281 73.816406 C 141.746094 94.457031 136.238281 120.796875 119.332031 139.863281 C 96.136719 166.007812 63.304688 183.894531 27.917969 185.664062 C 25.753906 185.863281 23.984375 187.632812 24.179688 189.792969 C 24.378906 191.957031 25.949219 193.527344 28.113281 193.527344 Z M 28.113281 193.527344 " fill-opacity="1" fill-rule="nonzero"/></g><g clip-path="url(#26c3dd4245)"><path fill="#b41515" d="M 268.15625 33.71875 C 268.546875 33.71875 269.136719 33.71875 269.53125 33.523438 C 270.710938 33.128906 271.890625 32.539062 273.070312 32.144531 C 275.035156 31.359375 276.214844 29.195312 275.429688 27.230469 C 274.640625 25.265625 272.480469 24.085938 270.515625 24.871094 C 269.335938 25.265625 267.957031 25.855469 266.777344 26.25 C 264.8125 27.035156 263.632812 29.195312 264.417969 31.359375 C 265.207031 32.734375 266.582031 33.71875 268.15625 33.71875 Z M 268.15625 33.71875 " fill-opacity="1" fill-rule="nonzero"/></g><path fill="#b41515" d="M 183.226562 117.257812 C 184.996094 117.257812 186.566406 116.082031 186.960938 114.3125 C 187.746094 111.753906 188.335938 109.398438 189.125 107.039062 C 189.714844 104.875 188.535156 102.714844 186.566406 102.125 C 184.40625 101.535156 182.242188 102.714844 181.652344 104.679688 C 180.867188 107.234375 180.082031 109.789062 179.492188 112.148438 C 178.902344 114.3125 180.082031 116.472656 182.242188 117.0625 C 182.636719 117.257812 182.832031 117.257812 183.226562 117.257812 Z M 183.226562 117.257812 " fill-opacity="1" fill-rule="nonzero"/><path fill="#b41515" d="M 196.003906 75.785156 C 195.21875 76.765625 192.074219 81.289062 191.285156 82.46875 C 190.105469 84.234375 190.695312 86.792969 192.664062 87.972656 C 194.433594 89.152344 196.988281 88.5625 198.167969 86.59375 C 198.953125 85.414062 201.707031 81.484375 202.296875 80.5 C 203.671875 78.730469 203.277344 76.375 201.507812 74.996094 C 199.738281 73.816406 197.378906 74.015625 196.003906 75.785156 Z M 196.003906 75.785156 " fill-opacity="1" fill-rule="nonzero"/><path fill="#b41515" d="M 177.917969 131.804688 C 175.953125 131.019531 173.59375 132.003906 172.804688 134.164062 C 172.609375 134.753906 170.644531 139.472656 169.859375 141.242188 C 169.070312 143.207031 169.859375 145.566406 171.824219 146.351562 C 173.789062 147.136719 176.148438 146.351562 176.933594 144.386719 C 177.722656 142.617188 179.6875 137.703125 179.882812 137.113281 C 180.867188 134.949219 179.882812 132.59375 177.917969 131.804688 Z M 177.917969 131.804688 " fill-opacity="1" fill-rule="nonzero"/><path fill="#b41515" d="M 236.894531 45.316406 C 237.878906 47.085938 240.433594 47.675781 242.203125 46.691406 C 244.367188 45.316406 246.527344 44.136719 248.886719 42.957031 C 250.855469 41.972656 251.445312 39.617188 250.460938 37.648438 C 249.476562 35.683594 247.117188 35.09375 245.152344 36.078125 C 242.792969 37.257812 240.433594 38.632812 238.273438 40.007812 C 236.304688 40.992188 235.714844 43.351562 236.894531 45.316406 Z M 236.894531 45.316406 " fill-opacity="1" fill-rule="nonzero"/><path fill="#b41515" d="M 218.613281 53.179688 C 216.449219 54.75 214.484375 56.519531 212.519531 58.289062 C 210.945312 59.664062 210.75 62.21875 212.125 63.792969 C 213.5 65.367188 216.058594 65.5625 217.628906 64.1875 C 219.398438 62.613281 221.367188 61.042969 223.527344 59.46875 C 225.296875 58.09375 225.492188 55.734375 224.117188 53.964844 C 222.742188 52.195312 220.382812 52 218.613281 53.179688 Z M 218.613281 53.179688 " fill-opacity="1" fill-rule="nonzero"/><path fill="#b41515" d="M 62.320312 225.570312 C 60.160156 225.960938 57.40625 226.160156 54.652344 226.550781 C 52.492188 226.746094 50.917969 228.714844 51.3125 230.875 C 51.507812 232.839844 53.671875 234.609375 55.636719 234.21875 C 58.390625 233.824219 61.140625 233.429688 63.304688 233.234375 C 65.464844 232.839844 67.039062 230.875 66.644531 228.714844 C 66.644531 226.746094 64.484375 225.371094 62.320312 225.570312 Z M 62.320312 225.570312 " fill-opacity="1" fill-rule="nonzero"/><path fill="#b41515" d="M 118.546875 204.929688 C 116.382812 206.304688 114.222656 207.679688 112.058594 208.859375 C 110.09375 210.039062 109.503906 212.398438 110.683594 214.167969 C 111.664062 215.9375 114.222656 216.722656 115.992188 215.542969 C 118.351562 214.167969 120.511719 212.792969 122.871094 211.414062 C 124.640625 210.234375 125.230469 207.878906 124.050781 205.910156 C 122.871094 204.144531 120.316406 203.75 118.546875 204.929688 Z M 118.546875 204.929688 " fill-opacity="1" fill-rule="nonzero"/><path fill="#b41515" d="M 91.613281 218.492188 C 89.253906 219.277344 86.894531 220.261719 84.535156 220.851562 C 82.375 221.441406 81.390625 223.601562 81.980469 225.765625 C 82.570312 227.730469 84.929688 228.910156 86.894531 228.320312 C 89.449219 227.535156 92.007812 226.746094 94.367188 225.765625 C 96.332031 224.980469 97.511719 222.816406 96.726562 220.65625 C 95.9375 218.886719 93.777344 217.707031 91.613281 218.492188 Z M 91.613281 218.492188 " fill-opacity="1" fill-rule="nonzero"/><path fill="#b41515" d="M 141.546875 185.46875 C 139.777344 187.238281 138.007812 189.007812 136.238281 190.777344 C 134.667969 192.347656 134.667969 194.707031 136.042969 196.28125 C 137.417969 197.851562 139.976562 197.851562 141.546875 196.476562 C 143.515625 194.707031 145.285156 192.742188 147.25 190.777344 C 148.820312 189.203125 148.625 186.648438 147.054688 185.273438 C 145.480469 183.894531 143.121094 183.894531 141.546875 185.46875 Z M 141.546875 185.46875 " fill-opacity="1" fill-rule="nonzero"/><path fill="#b41515" d="M 159.636719 161.488281 C 158.257812 163.648438 156.882812 165.8125 155.507812 167.972656 C 154.328125 169.742188 154.71875 172.296875 156.6875 173.476562 C 158.457031 174.65625 161.011719 174.265625 162.191406 172.296875 C 163.566406 170.136719 165.140625 167.777344 166.515625 165.617188 C 167.695312 163.847656 167.105469 161.289062 165.140625 160.308594 C 163.171875 158.933594 160.8125 159.71875 159.636719 161.488281 Z M 159.636719 161.488281 " fill-opacity="1" fill-rule="nonzero"/><path fill="#b41515" d="M 28.113281 236.773438 C 29.488281 236.773438 30.867188 236.773438 32.242188 236.773438 C 34.40625 236.773438 36.175781 234.808594 35.976562 232.644531 C 35.976562 230.484375 34.011719 228.714844 31.847656 228.910156 C 30.472656 228.910156 29.292969 228.910156 28.113281 228.910156 C 25.949219 228.910156 24.179688 230.679688 24.179688 232.839844 C 24.179688 235.003906 25.949219 236.773438 28.113281 236.773438 Z M 28.113281 236.773438 " fill-opacity="1" fill-rule="nonzero"/><g clip-path="url(#205ec39262)"><path fill="#b41515" d="M 275.429688 42.367188 C 274.445312 40.402344 272.085938 39.617188 270.121094 40.597656 C 239.84375 55.339844 223.527344 84.234375 215.269531 105.859375 C 206.226562 129.445312 205.246094 155 197.578125 178.980469 C 183.421875 223.601562 151.179688 254.070312 109.109375 262.328125 C 82.175781 266.847656 54.851562 267.242188 27.71875 268.222656 C 25.558594 268.222656 23.789062 270.1875 23.984375 272.351562 C 23.984375 274.515625 25.753906 276.085938 27.917969 276.085938 C 27.917969 276.085938 27.917969 276.085938 28.113281 276.085938 C 55.636719 276.085938 83.554688 274.710938 110.683594 270.1875 C 155.703125 261.34375 190.105469 229.105469 205.046875 181.539062 C 212.519531 157.753906 213.699219 132.199219 222.542969 108.808594 C 230.210938 88.5625 245.351562 61.433594 273.460938 47.675781 C 275.625 46.691406 276.410156 44.332031 275.429688 42.367188 Z M 275.429688 42.367188 " fill-opacity="1" fill-rule="nonzero"/></g></svg>