<svg xmlns="http://www.w3.org/2000/svg" xmlns:xlink="http://www.w3.org/1999/xlink" width="400" zoomAndPan="magnify" viewBox="0 0 300 299.999988" height="400" preserveAspectRatio="xMidYMid meet" version="1.0"><defs><clipPath id="7e8310d23f"><path d="M 44 21.648438 L 186 21.648438 L 186 247 L 44 247 Z M 44 21.648438 " clip-rule="nonzero"/></clipPath></defs><g clip-path="url(#7e8310d23f)"><path fill="#b41515" d="M 172.203125 41.609375 L 174.855469 41.609375 C 180.753906 41.609375 185.601562 36.820312 185.601562 30.886719 C 185.601562 24.984375 180.785156 20.195312 174.855469 20.195312 L 118.476562 20.195312 C 114.429688 20.195312 110.910156 22.511719 109.117188 25.878906 C 73.148438 27.054688 44.246094 56.597656 44.246094 92.910156 L 44.246094 246.75 L 54.710938 246.75 L 54.710938 92.910156 C 54.710938 62.347656 79.042969 37.4375 109.335938 36.386719 C 111.21875 39.507812 114.585938 41.640625 118.476562 41.640625 L 121.160156 41.640625 C 122.859375 54.21875 133.667969 63.953125 146.695312 63.953125 C 159.726562 63.953125 170.472656 54.21875 172.203125 41.609375 Z M 128.230469 41.609375 L 165.132812 41.609375 C 163.464844 50.324219 155.867188 56.9375 146.695312 56.9375 C 137.527344 56.9375 129.929688 50.324219 128.230469 41.609375 Z M 128.230469 41.609375 " fill-opacity="1" fill-rule="nonzero"/></g><path fill="#b41515" d="M 150.1875 101.160156 L 150.1875 78.789062 C 150.1875 76.871094 148.613281 75.296875 146.695312 75.296875 C 144.78125 75.296875 143.175781 76.871094 143.175781 78.789062 L 143.175781 101.160156 C 143.175781 103.109375 144.75 104.652344 146.667969 104.652344 C 148.582031 104.652344 150.1875 103.109375 150.1875 101.160156 Z M 150.1875 101.160156 " fill-opacity="1" fill-rule="nonzero"/><path fill="#b41515" d="M 177.851562 64.386719 C 176.492188 63.027344 174.300781 63.027344 172.914062 64.386719 C 171.554688 65.746094 171.554688 67.972656 172.914062 69.332031 L 188.722656 85.152344 C 189.429688 85.832031 190.328125 86.171875 191.191406 86.171875 C 192.085938 86.171875 193.011719 85.832031 193.660156 85.152344 C 195.050781 83.792969 195.050781 81.570312 193.660156 80.207031 Z M 177.851562 64.386719 " fill-opacity="1" fill-rule="nonzero"/><path fill="#b41515" d="M 104.609375 85.214844 L 120.421875 69.390625 C 121.777344 68.03125 121.777344 65.808594 120.421875 64.449219 C 119.0625 63.089844 116.839844 63.089844 115.480469 64.449219 L 99.671875 80.269531 C 98.3125 81.628906 98.3125 83.855469 99.671875 85.214844 C 100.351562 85.894531 101.214844 86.234375 102.140625 86.234375 C 103.035156 86.234375 103.902344 85.894531 104.609375 85.214844 Z M 104.609375 85.214844 " fill-opacity="1" fill-rule="nonzero"/><path fill="#b41515" d="M 154.632812 202.585938 L 152.839844 216.585938 L 168.15625 216.585938 L 166.335938 202.585938 Z M 154.632812 202.585938 " fill-opacity="1" fill-rule="nonzero"/><path fill="#b41515" d="M 149.753906 240.257812 L 171.246094 240.257812 L 169.175781 224.3125 L 151.824219 224.3125 Z M 149.753906 240.257812 " fill-opacity="1" fill-rule="nonzero"/><path fill="#b41515" d="M 148.300781 251.414062 L 145.492188 273.015625 L 175.503906 273.015625 L 172.664062 251.414062 Z M 148.300781 251.414062 " fill-opacity="1" fill-rule="nonzero"/><path fill="#b41515" d="M 62.523438 276.476562 L 70.984375 276.476562 L 126.285156 202.585938 L 117.796875 202.585938 Z M 62.523438 276.476562 " fill-opacity="1" fill-rule="nonzero"/><path fill="#b41515" d="M 203.203125 202.585938 L 194.742188 202.585938 L 249.984375 276.476562 L 258.503906 276.476562 Z M 203.203125 202.585938 " fill-opacity="1" fill-rule="nonzero"/></svg>