<svg xmlns="http://www.w3.org/2000/svg" xmlns:xlink="http://www.w3.org/1999/xlink" width="1080" zoomAndPan="magnify" viewBox="0 0 810 809.999993" height="1080" preserveAspectRatio="xMidYMid meet" version="1.0"><defs><clipPath id="442eaf4117"><path d="M 0 96.464844 L 810 96.464844 L 810 713.714844 L 0 713.714844 Z M 0 96.464844 " clip-rule="nonzero"/></clipPath></defs><g clip-path="url(#442eaf4117)"><path fill="#b41515" d="M 682.980469 279.527344 L 809.832031 353.703125 L 809.832031 261.789062 L 687.785156 261.789062 L 405 96.464844 L 122.234375 261.789062 L 0.1875 261.789062 L 0.1875 353.703125 L 116.628906 285.628906 L 116.628906 713.800781 L 134.363281 713.800781 L 134.363281 275.253906 L 405 117.003906 L 652.621094 261.789062 L 240.21875 261.789062 L 240.21875 713.800781 L 347 713.800781 L 347 525.433594 L 463.054688 525.433594 L 463.054688 713.800781 L 695.019531 713.800781 L 695.019531 348.117188 L 677.289062 348.117188 L 677.289062 696.066406 L 480.765625 696.066406 L 480.765625 507.699219 L 329.25 507.699219 L 329.25 696.066406 L 257.933594 696.066406 L 257.933594 279.527344 Z M 792.101562 279.527344 L 792.101562 322.789062 L 718.105469 279.527344 Z M 17.917969 322.789062 L 17.917969 279.527344 L 91.910156 279.527344 Z M 17.917969 322.789062 " fill-opacity="1" fill-rule="nonzero"/></g></svg>