<svg xmlns="http://www.w3.org/2000/svg" xmlns:xlink="http://www.w3.org/1999/xlink" width="1000" zoomAndPan="magnify" viewBox="0 0 750 299.999988" height="400" preserveAspectRatio="xMidYMid meet" version="1.0"><defs><g/><clipPath id="9af9038a61"><path d="M 127.5 24.890625 L 728.25 24.890625 L 728.25 54.140625 L 127.5 54.140625 Z M 127.5 24.890625 " clip-rule="nonzero"/></clipPath><clipPath id="0e24bfd060"><path d="M 127.53125 24.890625 L 728.214844 24.890625 L 728.214844 54.140625 L 127.53125 54.140625 Z M 127.53125 24.890625 " clip-rule="nonzero"/></clipPath><clipPath id="2d18eab289"><path d="M 66 24 L 156 24 L 156 227 L 66 227 Z M 66 24 " clip-rule="nonzero"/></clipPath><clipPath id="516b7b5c69"><path d="M 66.792969 218.113281 L 127.207031 24.835938 L 155.125 33.5625 L 94.710938 226.839844 Z M 66.792969 218.113281 " clip-rule="nonzero"/></clipPath><clipPath id="fdefbdd440"><path d="M 461 87 L 593 87 L 593 263 L 461 263 Z M 461 87 " clip-rule="nonzero"/></clipPath><clipPath id="8a562b45ed"><path d="M 461.535156 245.191406 L 565.167969 87.136719 L 592.136719 104.820312 L 488.503906 262.875 Z M 461.535156 245.191406 " clip-rule="nonzero"/></clipPath><clipPath id="47b1e05ddd"><path d="M 467.84375 75.03125 L 591.59375 75.03125 L 591.59375 104.28125 L 467.84375 104.28125 Z M 467.84375 75.03125 " clip-rule="nonzero"/></clipPath><clipPath id="8e56300fbf"><path d="M 461.53125 245.210938 L 737.53125 245.210938 L 737.53125 274.460938 L 461.53125 274.460938 Z M 461.53125 245.210938 " clip-rule="nonzero"/></clipPath><clipPath id="6ba710e4e3"><path d="M 129.21875 27.988281 L 724.71875 27.988281 L 724.71875 49.738281 L 129.21875 49.738281 Z M 129.21875 27.988281 " clip-rule="nonzero"/></clipPath></defs><g fill="#df1313" fill-opacity="1"><g transform="translate(8.581905, 226.785188)"><g><path d="M 86.015625 0 L 49.578125 0 L 2.953125 -151.453125 L 34.25 -151.453125 L 68.390625 -38.515625 L 102.421875 -151.453125 L 133.171875 -151.453125 Z M 86.015625 0 "/></g></g></g><g fill="#ffffff" fill-opacity="1"><g transform="translate(155.804706, 226.785188)"><g><path d="M 2.953125 0 L 53.078125 -151.453125 L 93.234375 -151.453125 L 143.453125 0 L 111.828125 0 L 101.765625 -30.75 L 43.4375 -30.75 L 33.59375 0 Z M 52.203125 -57.78125 L 93.015625 -57.78125 L 72.65625 -120.375 Z M 52.203125 -57.78125 "/></g></g></g><g fill="#ffffff" fill-opacity="1"><g transform="translate(313.319543, 226.785188)"><g><path d="M 101.546875 0 L 62.921875 -57.34375 L 47.265625 -57.34375 L 47.265625 0 L 16.421875 0 L 16.421875 -151.453125 L 71.453125 -151.453125 C 90.929688 -151.453125 105.175781 -147.945312 114.1875 -140.9375 C 123.195312 -133.9375 127.703125 -122.445312 127.703125 -106.46875 C 127.703125 -93.5625 124.984375 -83.273438 119.546875 -75.609375 C 114.109375 -67.953125 106.394531 -63.066406 96.40625 -60.953125 L 136.890625 0 Z M 96.40625 -105.15625 C 96.40625 -112.894531 94.453125 -118.078125 90.546875 -120.703125 C 86.648438 -123.328125 80.210938 -124.640625 71.234375 -124.640625 L 47.265625 -124.640625 L 47.265625 -84.265625 L 69.921875 -84.265625 C 76.859375 -84.265625 82.1875 -84.921875 85.90625 -86.234375 C 89.625 -87.546875 92.300781 -89.585938 93.9375 -92.359375 C 95.582031 -95.128906 96.40625 -99.394531 96.40625 -105.15625 Z M 96.40625 -105.15625 "/></g></g></g><g fill="#ffffff" fill-opacity="1"><g transform="translate(465.027184, 226.785188)"><g/></g></g><g fill="#ffffff" fill-opacity="1"><g transform="translate(530.073042, 226.785188)"><g/></g></g><g fill="#ffffff" fill-opacity="1"><g transform="translate(595.115758, 226.785188)"><g><path d="M 2.953125 0 L 53.078125 -151.453125 L 93.234375 -151.453125 L 143.453125 0 L 111.828125 0 L 101.765625 -30.75 L 43.4375 -30.75 L 33.59375 0 Z M 52.203125 -57.78125 L 93.015625 -57.78125 L 72.65625 -120.375 Z M 52.203125 -57.78125 "/></g></g></g><g clip-path="url(#9af9038a61)"><path fill="#df1313" d="M 127.53125 24.890625 L 728.214844 24.890625 L 728.214844 54.140625 L 127.53125 54.140625 L 127.53125 24.890625 " fill-opacity="1" fill-rule="nonzero"/></g><g clip-path="url(#0e24bfd060)"><path stroke-linecap="butt" transform="matrix(0.750161, 0, 0, 0.744038, 127.532479, 24.889089)" fill="none" stroke-linejoin="miter" d="M -0.0016383 0.00206505 L 800.738156 0.00206505 L 800.738156 39.314569 L -0.0016383 39.314569 L -0.0016383 0.00206505 " stroke="#ffffff" stroke-width="12" stroke-opacity="1" stroke-miterlimit="4"/></g><g clip-path="url(#2d18eab289)"><g clip-path="url(#516b7b5c69)"><path fill="#df1313" d="M 66.792969 218.105469 L 127.203125 24.84375 L 155.121094 33.570312 L 94.710938 226.832031 L 66.792969 218.105469 " fill-opacity="1" fill-rule="nonzero"/></g></g><g clip-path="url(#fdefbdd440)"><g clip-path="url(#8a562b45ed)"><path fill="#df1313" d="M 461.550781 245.164062 L 565.152344 87.160156 L 592.121094 104.84375 L 488.519531 262.847656 L 461.550781 245.164062 " fill-opacity="1" fill-rule="nonzero"/></g></g><g clip-path="url(#47b1e05ddd)"><path fill="#df1313" d="M 467.847656 75.03125 L 591.59375 75.03125 L 591.59375 104.28125 L 467.847656 104.28125 L 467.847656 75.03125 " fill-opacity="1" fill-rule="nonzero"/></g><g clip-path="url(#8e56300fbf)"><path fill="#df1313" d="M 461.546875 245.210938 L 737.515625 245.210938 L 737.515625 274.460938 L 461.546875 274.460938 L 461.546875 245.210938 " fill-opacity="1" fill-rule="nonzero"/></g><g clip-path="url(#6ba710e4e3)"><path fill="#df1313" d="M 129.273438 27.988281 L 724.664062 27.988281 L 724.664062 49.738281 L 129.273438 49.738281 L 129.273438 27.988281 " fill-opacity="1" fill-rule="nonzero"/></g><path stroke-linecap="butt" transform="matrix(1.399188, -4.267904, 4.276069, 1.401865, 93.821213, 226.435762)" fill="none" stroke-linejoin="miter" d="M -0.000430095 -0.0000698432 L 40.913587 -0.000140472 " stroke="#ffffff" stroke-width="1" stroke-opacity="1" stroke-miterlimit="4"/><path stroke-linecap="butt" transform="matrix(1.362671, -4.287755, 4.288632, 1.362949, 75.672071, 189.088343)" fill="none" stroke-linejoin="miter" d="M -0.000331119 0.0000594562 L 38.17599 -0.000457814 " stroke="#ffffff" stroke-width="1" stroke-opacity="1" stroke-miterlimit="4"/><path stroke-linecap="butt" transform="matrix(4.548303, 0.0276604, -0.0273661, 4.499916, 8.345974, 74.19586)" fill="none" stroke-linejoin="miter" d="M 0.000369013 -0.000123835 L 7.751372 -0.0000242283 " stroke="#ffffff" stroke-width="1" stroke-opacity="1" stroke-miterlimit="4"/><path stroke-linecap="butt" transform="matrix(1.281418, 4.303303, -4.31285, 1.284261, 41.42513, 72.866252)" fill="none" stroke-linejoin="miter" d="M 0.000240982 -0.0000793986 L 27.060672 -0.0000936723 " stroke="#ffffff" stroke-width="1" stroke-opacity="1" stroke-miterlimit="4"/><path stroke-linecap="butt" transform="matrix(1.382921, 4.287073, -4.28269, 1.381507, 10.14439, 74.441185)" fill="none" stroke-linejoin="miter" d="M 0.000056323 -0.000014717 L 35.632309 -0.000190537 " stroke="#ffffff" stroke-width="1" stroke-opacity="1" stroke-miterlimit="4"/><path stroke-linecap="butt" transform="matrix(4.520776, 0, 0, 4.5, 57.144114, 225.329367)" fill="none" stroke-linejoin="miter" d="M 0.0000923994 -0.000276044 L 8.463622 -0.000276044 " stroke="#ffffff" stroke-width="1" stroke-opacity="1" stroke-miterlimit="4"/><path stroke-linecap="butt" transform="matrix(4.499381, 0.00732838, -0.00732938, 4.499994, 125.589394, 26.493111)" fill="none" stroke-linejoin="miter" d="M 0.0000997252 -0.000205304 L 133.852723 -0.000306279 " stroke="#ffffff" stroke-width="1" stroke-opacity="1" stroke-miterlimit="4"/><path stroke-linecap="butt" transform="matrix(4.496745, -0.000000000000000737, 0.000000000000000737, 4.5, 461.530681, 274.299734)" fill="none" stroke-linejoin="miter" d="M 0.000126467 0.000232811 L 61.211931 0.000232811 " stroke="#ffffff" stroke-width="1" stroke-opacity="1" stroke-miterlimit="4"/><path stroke-linecap="butt" transform="matrix(4.505742, 0.0109514, -0.0109374, 4.499986, 499.18075, 244.786065)" fill="none" stroke-linejoin="miter" d="M -0.000236351 -0.000201327 L 52.933086 0.000317956 " stroke="#ffffff" stroke-width="1" stroke-opacity="1" stroke-miterlimit="4"/><path stroke-linecap="butt" transform="matrix(0.000000000000000278, -4.539589, 4.5, 0.000000000000000276, 735.468891, 276.469079)" fill="none" stroke-linejoin="miter" d="M 0.0000724783 -0.0000313193 L 7.105961 -0.0000313193 " stroke="#ffffff" stroke-width="1" stroke-opacity="1" stroke-miterlimit="4"/><path stroke-linecap="butt" transform="matrix(-0.0596128, -4.46307, 4.499598, -0.0601007, 591.601071, 105.016273)" fill="none" stroke-linejoin="miter" d="M 0.000143699 0.000111206 L 7.058944 -0.000128845 " stroke="#ffffff" stroke-width="1" stroke-opacity="1" stroke-miterlimit="4"/><path stroke-linecap="butt" transform="matrix(0.000000000000000231, -3.769633, 3.75, 0.00000000000000023, 466.255753, 105.443151)" fill="none" stroke-linejoin="miter" d="M 0.000462947 -0.000492446 L 8.356714 -0.000492446 " stroke="#ffffff" stroke-width="1" stroke-opacity="1" stroke-miterlimit="4"/><path stroke-linecap="butt" transform="matrix(0.000000000000000277, -4.523559, 4.5, 0.000000000000000276, 461.528953, 276.547977)" fill="none" stroke-linejoin="miter" d="M 0.000243528 -0.00035768 L 6.96465 -0.00035768 " stroke="#ffffff" stroke-width="1" stroke-opacity="1" stroke-miterlimit="4"/><path stroke-linecap="butt" transform="matrix(4.493423, -0.0201356, 0.0201649, 4.499955, 464.566465, 74.388457)" fill="none" stroke-linejoin="miter" d="M -0.0000113543 -0.00038636 L 28.710351 -0.000391876 " stroke="#ffffff" stroke-width="1" stroke-opacity="1" stroke-miterlimit="4"/><path stroke-linecap="butt" transform="matrix(4.499428, 0, 0, 4.5, 464.669401, 103.856768)" fill="none" stroke-linejoin="miter" d="M -0.00031833 -0.000288793 L 20.503154 -0.000288793 " stroke="#ffffff" stroke-width="1" stroke-opacity="1" stroke-miterlimit="4"/><path stroke-linecap="butt" transform="matrix(2.490981, -3.748415, 3.747897, 2.490636, 461.209849, 246.134862)" fill="none" stroke-linejoin="miter" d="M -0.000209727 0.000429732 L 37.661274 0.0000212191 " stroke="#ffffff" stroke-width="1" stroke-opacity="1" stroke-miterlimit="4"/><path stroke-linecap="butt" transform="matrix(2.491881, -3.755969, 3.749792, 2.487782, 497.484238, 245.913906)" fill="none" stroke-linejoin="miter" d="M -0.000012116 0.0000444877 L 37.93936 -0.000312148 " stroke="#ffffff" stroke-width="1" stroke-opacity="1" stroke-miterlimit="4"/></svg>