<svg xmlns="http://www.w3.org/2000/svg" xmlns:xlink="http://www.w3.org/1999/xlink" width="1000" zoomAndPan="magnify" viewBox="0 0 750 299.999988" height="400" preserveAspectRatio="xMidYMid meet" version="1.0"><defs><g/><clipPath id="db18aef184"><path d="M 210.152344 79.574219 L 588.152344 79.574219 L 588.152344 98.324219 L 210.152344 98.324219 Z M 210.152344 79.574219 " clip-rule="nonzero"/></clipPath><clipPath id="aa9afddcc9"><path d="M 210.207031 79.574219 L 588.097656 79.574219 L 588.097656 98.324219 L 210.207031 98.324219 Z M 210.207031 79.574219 " clip-rule="nonzero"/></clipPath><clipPath id="e4f8f0f4c7"><path d="M 171 79 L 228 79 L 228 207 L 171 207 Z M 171 79 " clip-rule="nonzero"/></clipPath><clipPath id="338c326bbe"><path d="M 171.929688 201.246094 L 209.96875 79.554688 L 227.867188 85.148438 L 189.824219 206.839844 Z M 171.929688 201.246094 " clip-rule="nonzero"/></clipPath><clipPath id="c2e14aa14f"><path d="M 420 118 L 503 118 L 503 230 L 420 230 Z M 420 118 " clip-rule="nonzero"/></clipPath><clipPath id="2a176f1ab3"><path d="M 420.488281 218.296875 L 485.875 118.570312 L 502.808594 129.671875 L 437.421875 229.398438 Z M 420.488281 218.296875 " clip-rule="nonzero"/></clipPath><clipPath id="c5971edc91"><path d="M 424.464844 111.148438 L 502.464844 111.148438 L 502.464844 129.898438 L 424.464844 129.898438 Z M 424.464844 111.148438 " clip-rule="nonzero"/></clipPath><clipPath id="26a311efdc"><path d="M 420.488281 218.308594 L 594.488281 218.308594 L 594.488281 237.058594 L 420.488281 237.058594 Z M 420.488281 218.308594 " clip-rule="nonzero"/></clipPath><clipPath id="1fd1500d71"><path d="M 211.238281 81.527344 L 586.238281 81.527344 L 586.238281 95.777344 L 211.238281 95.777344 Z M 211.238281 81.527344 " clip-rule="nonzero"/></clipPath></defs><g fill="#df1313" fill-opacity="1"><g transform="translate(135.274174, 206.705614)"><g><path d="M 54.15625 0 L 31.21875 0 L 1.859375 -95.375 L 21.5625 -95.375 L 43.0625 -24.25 L 64.5 -95.375 L 83.859375 -95.375 Z M 54.15625 0 "/></g></g></g><g fill="#000000" fill-opacity="1"><g transform="translate(227.977299, 206.705614)"><g><path d="M 1.859375 0 L 33.421875 -95.375 L 58.703125 -95.375 L 90.34375 0 L 70.421875 0 L 64.078125 -19.359375 L 27.359375 -19.359375 L 21.15625 0 Z M 32.875 -36.390625 L 58.578125 -36.390625 L 45.75 -75.796875 Z M 32.875 -36.390625 "/></g></g></g><g fill="#000000" fill-opacity="1"><g transform="translate(327.161103, 206.705614)"><g><path d="M 63.953125 0 L 39.625 -36.109375 L 29.765625 -36.109375 L 29.765625 0 L 10.34375 0 L 10.34375 -95.375 L 45 -95.375 C 57.257812 -95.375 66.226562 -93.164062 71.90625 -88.75 C 77.582031 -84.34375 80.421875 -77.109375 80.421875 -67.046875 C 80.421875 -58.910156 78.707031 -52.429688 75.28125 -47.609375 C 71.863281 -42.785156 67.003906 -39.707031 60.703125 -38.375 L 86.203125 0 Z M 60.703125 -66.21875 C 60.703125 -71.09375 59.472656 -74.351562 57.015625 -76 C 54.554688 -77.65625 50.503906 -78.484375 44.859375 -78.484375 L 29.765625 -78.484375 L 29.765625 -53.0625 L 44.03125 -53.0625 C 48.394531 -53.0625 51.75 -53.472656 54.09375 -54.296875 C 56.4375 -55.128906 58.125 -56.414062 59.15625 -58.15625 C 60.1875 -59.90625 60.703125 -62.59375 60.703125 -66.21875 Z M 60.703125 -66.21875 "/></g></g></g><g fill="#000000" fill-opacity="1"><g transform="translate(422.688238, 206.705614)"><g/></g></g><g fill="#000000" fill-opacity="1"><g transform="translate(463.646258, 206.705614)"><g/></g></g><g fill="#000000" fill-opacity="1"><g transform="translate(504.602298, 206.705614)"><g><path d="M 1.859375 0 L 33.421875 -95.375 L 58.703125 -95.375 L 90.34375 0 L 70.421875 0 L 64.078125 -19.359375 L 27.359375 -19.359375 L 21.15625 0 Z M 32.875 -36.390625 L 58.578125 -36.390625 L 45.75 -75.796875 Z M 32.875 -36.390625 "/></g></g></g><g clip-path="url(#db18aef184)"><path fill="#df1313" d="M 210.207031 79.574219 L 588.097656 79.574219 L 588.097656 98.324219 L 210.207031 98.324219 L 210.207031 79.574219 " fill-opacity="1" fill-rule="nonzero"/></g><g clip-path="url(#aa9afddcc9)"><path stroke-linecap="butt" transform="matrix(0.749605, 0, 0, 0.757576, 210.207713, 79.57585)" fill="none" stroke-linejoin="miter" d="M -0.000909523 -0.00215365 L 504.118828 -0.00215365 L 504.118828 24.747846 L -0.000909523 24.747846 L -0.000909523 -0.00215365 " stroke="#000000" stroke-width="8" stroke-opacity="1" stroke-miterlimit="4"/></g><g clip-path="url(#e4f8f0f4c7)"><g clip-path="url(#338c326bbe)"><path fill="#df1313" d="M 171.933594 201.230469 L 209.964844 79.570312 L 227.859375 85.164062 L 189.832031 206.824219 L 171.933594 201.230469 " fill-opacity="1" fill-rule="nonzero"/></g></g><g clip-path="url(#c2e14aa14f)"><g clip-path="url(#2a176f1ab3)"><path fill="#df1313" d="M 420.496094 218.285156 L 485.867188 118.582031 L 502.800781 129.6875 L 437.429688 229.386719 L 420.496094 218.285156 " fill-opacity="1" fill-rule="nonzero"/></g></g><g clip-path="url(#c5971edc91)"><path fill="#df1313" d="M 424.46875 111.148438 L 502.457031 111.148438 L 502.457031 129.898438 L 424.46875 129.898438 L 424.46875 111.148438 " fill-opacity="1" fill-rule="nonzero"/></g><g clip-path="url(#26a311efdc)"><path fill="#df1313" d="M 420.511719 218.308594 L 594.460938 218.308594 L 594.460938 237.058594 L 420.511719 237.058594 L 420.511719 218.308594 " fill-opacity="1" fill-rule="nonzero"/></g><g clip-path="url(#1fd1500d71)"><path fill="#df1313" d="M 211.273438 81.527344 L 586.199219 81.527344 L 586.199219 95.777344 L 211.273438 95.777344 L 211.273438 81.527344 " fill-opacity="1" fill-rule="nonzero"/></g><path stroke-linecap="butt" transform="matrix(0.468611, -1.429391, 1.609815, 0.527761, 188.804911, 206.433792)" fill="none" stroke-linejoin="miter" d="M 0.0000789572 -0.000161684 L 77.286886 0.000645959 " stroke="#000000" stroke-width="1" stroke-opacity="1" stroke-miterlimit="4"/><path stroke-linecap="butt" transform="matrix(0.453627, -1.427376, 1.614544, 0.51311, 177.375514, 182.917046)" fill="none" stroke-linejoin="miter" d="M -0.000691217 -0.00012422 L 72.116079 0.000311056 " stroke="#000000" stroke-width="1" stroke-opacity="1" stroke-miterlimit="4"/><path stroke-linecap="butt" transform="matrix(1.522976, 0, 0, 1.694118, 135.392757, 110.336761)" fill="none" stroke-linejoin="miter" d="M 0.00116516 -0.000485851 L 14.287546 -0.000485851 " stroke="#000000" stroke-width="1" stroke-opacity="1" stroke-miterlimit="4"/><path stroke-linecap="butt" transform="matrix(0.427105, 1.434321, -1.623661, 0.483486, 156.097723, 109.739609)" fill="none" stroke-linejoin="miter" d="M -0.000863322 -0.000185955 L 51.117442 0.00035341 " stroke="#000000" stroke-width="1" stroke-opacity="1" stroke-miterlimit="4"/><path stroke-linecap="butt" transform="matrix(0.461839, 1.431706, -1.612307, 0.520097, 136.398769, 110.729609)" fill="none" stroke-linejoin="miter" d="M 0.000475939 0.000342222 L 67.30979 0.000414887 " stroke="#000000" stroke-width="1" stroke-opacity="1" stroke-miterlimit="4"/><path stroke-linecap="butt" transform="matrix(1.501466, 0, 0, 1.694118, 165.852774, 205.635965)" fill="none" stroke-linejoin="miter" d="M -0.000807048 0.000445036 L 15.988773 0.000445036 " stroke="#000000" stroke-width="1" stroke-opacity="1" stroke-miterlimit="4"/><path stroke-linecap="butt" transform="matrix(1.501259, 0, 0, 1.694118, 209.63329, 80.299352)" fill="none" stroke-linejoin="miter" d="M -0.000317986 0.000843748 L 251.296562 0.000843748 " stroke="#000000" stroke-width="1" stroke-opacity="1" stroke-miterlimit="4"/><path stroke-linecap="butt" transform="matrix(1.498378, -0.000000000000000246, 0.000000000000000278, 1.694118, 420.486533, 236.72267)" fill="none" stroke-linejoin="miter" d="M 0.00116699 -0.00000827431 L 115.631391 -0.00000827431 " stroke="#000000" stroke-width="1" stroke-opacity="1" stroke-miterlimit="4"/><path stroke-linecap="butt" transform="matrix(1.50023, 0.00364638, -0.00411762, 1.694113, 443.927211, 218.154592)" fill="none" stroke-linejoin="miter" d="M -0.000950159 0.000980856 L 99.991542 0.000196384 " stroke="#000000" stroke-width="1" stroke-opacity="1" stroke-miterlimit="4"/><path stroke-linecap="butt" transform="matrix(0.000000000000000091, -1.483066, 1.694118, 0.000000000000000104, 593.033295, 237.595233)" fill="none" stroke-linejoin="miter" d="M 0.00100022 0.00109891 L 13.154707 0.00109891 " stroke="#000000" stroke-width="1" stroke-opacity="1" stroke-miterlimit="4"/><path stroke-linecap="butt" transform="matrix(0.000000000000000091, -1.483066, 1.694118, 0.000000000000000104, 502.237366, 130.290693)" fill="none" stroke-linejoin="miter" d="M 0.00109911 0.000540261 L 13.154805 0.000540261 " stroke="#000000" stroke-width="1" stroke-opacity="1" stroke-miterlimit="4"/><path stroke-linecap="butt" transform="matrix(0.000000000000000091, -1.483066, 1.694118, 0.000000000000000104, 423.308332, 130.290693)" fill="none" stroke-linejoin="miter" d="M 0.00109911 0.000154251 L 13.154805 0.000154251 " stroke="#000000" stroke-width="1" stroke-opacity="1" stroke-miterlimit="4"/><path stroke-linecap="butt" transform="matrix(0.000000000000000091, -1.483066, 1.694118, 0.000000000000000104, 420.331949, 237.595233)" fill="none" stroke-linejoin="miter" d="M 0.00100022 0.0000487434 L 13.154707 0.0000487434 " stroke="#000000" stroke-width="1" stroke-opacity="1" stroke-miterlimit="4"/><path stroke-linecap="butt" transform="matrix(1.501071, -0.00675978, 0.00762905, 1.6941, 422.397437, 110.591629)" fill="none" stroke-linejoin="miter" d="M 0.000672196 -0.00105087 L 53.967359 -0.000152579 " stroke="#000000" stroke-width="1" stroke-opacity="1" stroke-miterlimit="4"/><path stroke-linecap="butt" transform="matrix(1.506504, -0.000000000000000754, 0.000000000000000848, 1.694118, 422.462932, 129.147205)" fill="none" stroke-linejoin="miter" d="M 0.00126867 0.00072725 L 37.839804 0.00072725 " stroke="#000000" stroke-width="1" stroke-opacity="1" stroke-miterlimit="4"/><path stroke-linecap="butt" transform="matrix(0.833508, -1.251417, 1.409992, 0.939126, 420.158045, 218.798639)" fill="none" stroke-linejoin="miter" d="M 0.000314727 -0.00145888 L 71.836172 0.000789157 " stroke="#000000" stroke-width="1" stroke-opacity="1" stroke-miterlimit="4"/><path stroke-linecap="butt" transform="matrix(0.827362, -1.247069, 1.411686, 0.936577, 443.001195, 218.663464)" fill="none" stroke-linejoin="miter" d="M -0.000774762 -0.000392306 L 71.669983 -0.000963691 " stroke="#000000" stroke-width="1" stroke-opacity="1" stroke-miterlimit="4"/></svg>